<?xml version="1.0" encoding="utf-8"?>
<!-- (c) ammap.com | SVG map of Mexico -->
<svg xmlns="http://www.w3.org/2000/svg" xmlns:amcharts="http://amcharts.com/ammap" xmlns:xlink="http://www.w3.org/1999/xlink" version="1.1">
	<defs>
		<style type="text/css">
			.land
			{
				fill: #CCCCCC;
				fill-opacity: 1;
				stroke:white;
				stroke-opacity: 1;
				stroke-width:0.5;
			}
		</style>

		<amcharts:ammap projection="mercator" leftLongitude="-118.369112" topLatitude="32.716750" rightLongitude="-86.725536" bottomLatitude="14.531518"></amcharts:ammap>

		<!-- All areas are listed in the line below. You can use this list in your script. -->
		<!--{id:"MX-AGU"},{id:"MX-BCN"},{id:"MX-BCS"},{id:"MX-CAM"},{id:"MX-CHP"},{id:"MX-CHH"},{id:"MX-COA"},{id:"MX-OCL"},{id:"MX-DIF"},{id:"MX-DUR"},{id:"MX-GUA"},{id:"MX-GRO"},{id:"MX-HID"},{id:"MX-JAL"},{id:"MX-MEX"},{id:"MX-MIC"},{id:"MX-MOR"},{id:"MX-NAY"},{id:"MX-NLE"},{id:"MX-OAX"},{id:"MX-PUE"},{id:"MX-QUE"},{id:"MX-ROO"},{id:"MX-SLP"},{id:"MX-SIN"},{id:"MX-SON"},{id:"MX-TAB"},{id:"MX-TAM"},{id:"MX-TLA"},{id:"MX-VER"},{id:"MX-YUC"},{id:"MX-ZAC"}-->

	</defs>
	<g>
		<path id="MX-BCS" title="Baja California Sur" class="land" d="M90.77,454.84l1.49,0.37l-0.48,0.42l-1.32,0.17l-0.12,-0.73L90.77,454.84zM184.67,441.89l1.03,0.69l0.7,1.07l-0.01,1.76l-0.83,0.41l-0.44,-0.69l-1.15,-0.2l-0.81,-1.31L184.67,441.89zM189.4,429.56l0.23,0.65l-0.46,0.66l-0.29,-0.57L189.4,429.56zM211.13,294.41l2.79,4.59l0.44,1.91l-1.56,-0.29l-0.71,-1.05l-1.1,-3.81L211.13,294.41zM159.65,290.27l3.12,0.16l1.11,1.44l0.94,0.11l0.81,0.62l1.33,2.43l-0.35,0.83l-6.92,-5.03l-0.31,-0.34L159.65,290.27zM200.38,290.03l1.77,1.59l-0.93,2.03l-0.54,0.03l0.04,-0.83l-0.73,-0.26l0.12,-0.5l-0.46,-0.58l0.18,-0.67l-0.27,-0.46L200.38,290.03zM199.52,288.45l0.87,1.34l-0.59,0.33l-0.62,-0.36l-0.1,-0.78L199.52,288.45zM191.74,274.37l0.92,1.45l1.98,0.54l0.42,0.6l0.06,1.54l0.97,2.16l-0.47,0.09l-2.64,-2.04l-0.68,-2.02l-0.89,-0.9L191.74,274.37zM156.07,269.79l0.21,1.38l-1.1,3.4l0.11,3.08l-0.76,0.68l0.66,1.33l-0.33,1.14l-0.63,0.07l-0.31,0.53l0.16,0.72l1.14,1.27l-0.16,0.29l0.93,0.82l0.44,1.34l-0.67,1.1l0.92,0.78l1.25,1.81l-0.07,0.38l-1.06,-0.54l-0.05,-0.66l-1.78,-1.9l0.19,-0.53l0.57,0.08l0.22,-0.54l-0.12,-1.07l-0.8,-0.98l-1.33,-0.69l-1.22,0.37l-0.7,-0.45l-0.04,-0.58l0.41,-0.08l1.95,-5.17L156.07,269.79zM192.14,268.66l-0.45,1.2l-0.52,0.24l-0.15,-0.74L192.14,268.66zM156.91,263.73l-0.16,4.42l-0.37,1.37l-0.5,-0.35L156.91,263.73zM156.97,258.53l0.16,2.08l-0.17,2.51l-0.28,0.01L156.97,258.53zM190.03,257.61l0.31,3.3l-0.71,-0.44l-0.4,-1.4L190.03,257.61zM183.49,257.57l0.54,1.25l-0.33,0.51l-0.41,-0.2l-0.41,-1.41L183.49,257.57zM182.83,247.79l-0.5,1.02l0.4,1.67l-1.2,-0.74l-1.71,2.67v0.92l-0.56,0.55v0.68l-0.6,0.05l-0.13,-0.76l0.4,-0.45l0.18,-1.68l1.05,-1.74l-0.19,-1.46l0.98,-0.25l0.18,-0.43l0.64,0.4L182.83,247.79zM177.64,245.9l0.18,0.79l-0.45,0.05l-0.17,-0.54L177.64,245.9zM128.55,229.37l1.34,0.32l0.75,1.57l-0.96,-0.63l-1.97,-0.48l-0.12,-0.28L128.55,229.37zM157.11,214.6l1.06,1l-0.34,1.22l-0.62,-0.16l-0.5,-1.41L157.11,214.6zM162.18,209.09l0.42,0.05l0.28,0.62l-0.93,0.04l-0.18,-0.46L162.18,209.09zM78.84,196.69l1.37,0.75l-0.1,0.53l-1.37,-1.02L78.84,196.69zM105.55,195.13h0.65l0,0l0.41,0.41l0.29,-0.41l31.7,0.1l0,0l0.87,0.26l0.64,1.71l0,0l-0.07,0.5l1.29,1.03l0.4,1.96l1.08,1.29l0.42,-0.04l1.23,1.7l2.78,0.86l0.54,0.62l0.94,0.15l1.61,1.11l0.71,0.96l0.7,3.73l1.64,1.81l0.97,2.21l-0.41,0.76l2.6,2.1l2.54,0.65l0.47,0.57l0.93,-0.01l0.15,0.73l-0.57,0.03l-0.89,1.04l-0.23,1.58l1.68,2.42l0.9,0.46l0.04,0.46l0.92,0.66l0.33,1.37l-0.7,0.55l-0.47,1.29l1.17,0.73l0.29,1.17l1.08,0.66l0.69,1.69l1,0.75l1.55,-1.38l-3.45,-3.58l-0.23,-2.91l-0.68,-1.64l0.74,-0.47l1.85,1.4l0.67,1.09l1.35,0.93l0.47,0.75l2.16,1.37l-0.19,3.51l0.35,0.56l2.72,0.85l-0.6,1.63l0.04,1.24l1.15,1.88l0.71,0.31l0.22,0.5l0.07,1.14l-0.35,0.66l1.98,5.16l-0.58,0.94l0.1,1.35l-0.52,0.72l0.11,0.99l0.45,0.58l0.08,1.92l0.63,0.67l0.04,1.05l1.8,1.47l0.22,-0.17l0.8,3.11l1.84,2.4l2.56,0.31l-0.22,1.61l1.17,3.14l0.85,0.85l0.3,1.05l-0.3,0.17l0.38,1.53l0.62,0.81l-0.04,1l0.68,0.54l0.44,1.26l0.86,0.48l0.51,0.9l0.47,-0.13l0.76,0.62l0.25,1.3l1.61,2.21l0.67,2.08l-0.17,1.19l-0.74,1.77l-0.87,0.93l-0.22,3.09l0.22,1.04l1.05,1.39l0.13,2.88l1.06,1.24l0.69,1.57l1.54,1.35l4.34,0.95l1.21,-0.12l0.06,0.28l-1.28,0.5l-0.79,-0.65l-0.42,0.25l0.21,1.46l1.68,-0.13l-0.01,-0.78l1.21,-1.03l0.06,-0.98l-0.91,-2.2l0.28,-1.07l0.71,-0.45l1.56,0.21v0.78l1.06,0.62l0.42,1.12l2.15,0.99l2.06,1.58l0.71,3.23l1.2,0.3l2.6,-0.88l0.04,0.58l0.53,0.49l-0.7,0.86l0.07,2.03l3.24,3.16l-0.28,1.97l0.31,1.69l0.39,0.47l5.38,2.63l-0.31,0.81l1.43,2.07l-0.22,0.69l0.42,0.43l-0.51,4.39l-0.59,1.26l-1.87,2.31l-1.04,0.72l-2.2,0.54l-1.21,0.82l-0.02,0.75l-2.07,1.14l-0.53,1.04l-0.94,0.74l-0.93,0.04l-0.64,0.67h-1.15l-2.42,-2.01l-1.17,-2.77l-1.46,-7.1l-2.5,-4.57l-1.83,-2.44l-6.19,-3.28l-11.64,-11.53L172.33,295l0.12,-0.26l-1.16,-1.24l-1.55,-0.21l0.06,-0.48l-0.64,-0.07l-1.02,-2.97l0.28,-0.11l-0.47,-0.58l-0.99,-0.3l-0.1,1.14l-2.41,-0.2l-0.06,0.75l-0.6,-0.01l0.15,-1.48l-0.73,-2.01l-2.19,-2.41l0.27,-0.25l-0.56,-0.5l-0.68,0.27l0.13,0.44l-1.46,-0.24l-2.01,-0.97l-0.31,-0.69l0.54,-0.03l0.11,-0.76l-0.62,-0.4l-0.17,-0.78l0.65,-0.97l-0.27,-0.16l0.39,-0.72l-0.44,-0.13l0.24,-0.45l-0.42,-0.48l-0.57,0.92l0.29,0.76l-0.39,0.49l0.05,2.53h-0.73l-0.48,-1.15l0.77,-1.55l-0.65,-1.39l0.81,-0.45l0.74,-1.67l0.02,-0.96l-0.86,0.12l0.16,-1.89l0.87,-2.01l0.27,-1.77l0.71,-0.12l0.06,-2.45l-0.5,-0.11l0.06,-1.17l0.58,-0.44l-0.39,-0.33l-0.21,-1.07l0.3,-1l0.3,-0.05l0.13,-2.41l-0.13,-1.28l-0.8,-1.07l-0.34,-2.88l-2.03,-5.36l-0.94,-1.24l-1.93,-1.06l-0.87,-2.85l-1.64,-1.94l-1.58,-0.4l-0.19,0.66l-0.45,0.13l-3.19,-2.33l-0.69,-0.26l-0.67,0.28l-0.79,-1.19l-1.98,-1.4l0.01,-0.44l-0.63,-0.03l-3.59,-2.96l0.97,0.09l1.27,0.94l0.13,-0.24l-1.06,-0.77l-1.08,-0.32l-0.69,0.22l-2.27,-1.98l0.19,-0.19l-0.4,-0.5l0.38,-0.61l-1.73,-2.07l-0.94,-1.98l-0.36,1.05l-1.51,-0.7l0.31,-0.32l0.51,0.16l1.55,-1.56l0.42,-1.29l-0.82,-2.81l-0.6,0.65l-0.38,3.22l-0.56,0.49l-0.7,-0.23l-0.38,0.75l0.06,1.83l-0.45,0.05l-2.14,-1.33l-1.51,-0.26l0.21,-0.53l0.54,0.39l0.07,-0.38l-0.53,-0.2l-1.44,0.22l-0.8,0.89l-0.39,1.19l-0.63,0.28l-0.01,0.58l-0.71,0.4l-0.82,-0.26l-0.8,-0.52l-0.7,-1.41l-1.6,-0.4l-1.61,-3.69l-1.81,-1.34l-2.21,-0.57l-0.45,0.16l-0.18,0.55l-0.44,0.03l-1.28,-1.34l-1.1,-1.99l-1.08,-0.8l-1.22,-0.58l-2.02,-0.3l-0.75,0.66l-2.43,-1.55l-0.51,0.41l-0.48,-0.26l0.06,-0.8l-0.62,-0.39l-0.53,0.11l-0.24,-0.37l-0.02,-3.52l-0.48,-1.57l-2.35,-1.91l-3.33,-1.21l-1.15,-2.25l-1.67,-1.25l-0.07,-1.02l-0.68,-0.46l-0.62,0.95l-0.77,-0.35l-0.31,-0.91l-1.03,-0.53l-0.56,0.27l-1.08,-2.81l-0.79,-0.78l0.8,-0.41l1.06,0.91l2.33,-0.22l1.52,0.23l0.36,0.5l1.37,-0.18l1.62,0.3l0.46,0.49l1.58,0.33l2.77,-0.23l0.59,0.35l2.44,-1.32l0.6,0.35l0.76,-0.15l0.15,-0.6l-0.63,-0.04l1.1,-1.2l0.86,0.29l-0.52,2.48l0.76,1.26l1.5,1.2l1.27,0.37l1.35,1.2l-0.05,0.42l0.8,0.26l1.02,-1.07l0.06,-0.88l2.1,0.72l1.56,2.96l0.89,0.14l0.59,-1.17l-1.57,-1.62l0.12,-1.05l0.67,0.65l0.15,-0.41l-0.57,-0.45l0.27,-0.61l-0.46,-1.74l0.23,-0.9l-1.75,-1.44l-1.03,1.89l0.19,1.14l-3.18,1.21l-1.64,-1.24l0.24,-0.54l0.6,0.5l-0.74,-1.98l1.17,-1.74l-0.54,-0.48L105.55,195.13z"/>

	</g>
</svg>